<svg xmlns="http://www.w3.org/2000/svg">
  <symbol id="palo-icon-generic" viewBox="0 0 24 24"><circle cx="12" cy="12" r="8"/><path d="M12 8v8M8 12h8"/></symbol>
  <symbol id="palo-icon-menu" viewBox="0 0 24 24"><path d="M4 7h16M4 12h16M4 17h16"/></symbol>
  <symbol id="palo-icon-arrow-right" viewBox="0 0 24 24"><path d="M4 12h15M13 6l6 6-6 6"/></symbol>
  <symbol id="palo-icon-home" viewBox="0 0 24 24"><path d="M3 11.5 12 4l9 7.5"/><path d="M5.5 10.5V20h13v-9.5"/><path d="M10 20v-5h4v5"/></symbol>
  <symbol id="palo-icon-shield" viewBox="0 0 24 24"><path d="M12 3 20 6v6c0 4.5-3.1 7.5-8 9-4.9-1.5-8-4.5-8-9V6l8-3Z"/><path d="m8.5 12 2.2 2.2 4.8-5"/></symbol>
  <symbol id="palo-icon-scale" viewBox="0 0 24 24"><path d="M12 3v18M5 6h14M7 6l-4 7h8L7 6ZM17 6l-4 7h8l-4-7Z"/><path d="M8 21h8"/></symbol>
  <symbol id="palo-icon-chart" viewBox="0 0 24 24"><path d="M4 19h16"/><path d="M7 16V9M12 16V5M17 16v-4"/></symbol>
  <symbol id="palo-icon-trend-up" viewBox="0 0 24 24"><path d="M4 17 10 11l4 4 6-8"/><path d="M15 7h5v5"/></symbol>
  <symbol id="palo-icon-trend-down" viewBox="0 0 24 24"><path d="M4 7l6 6 4-4 6 8"/><path d="M15 17h5v-5"/></symbol>
  <symbol id="palo-icon-trend-flat" viewBox="0 0 24 24"><path d="M4 12h16"/><path d="m16 8 4 4-4 4"/></symbol>
  <symbol id="palo-icon-palette" viewBox="0 0 24 24"><path d="M12 4a8 8 0 0 0 0 16h1.2a1.8 1.8 0 0 0 1.2-3.1c-.5-.4-.2-1.2.5-1.2H16a4 4 0 0 0 4-4c0-4.3-3.6-7.7-8-7.7Z"/><circle cx="8.5" cy="10" r=".7"/><circle cx="11.5" cy="7.8" r=".7"/><circle cx="15" cy="9" r=".7"/></symbol>
  <symbol id="palo-icon-brain" viewBox="0 0 24 24"><path d="M9 4a3 3 0 0 0-3 3v1a3 3 0 0 0-2 5.5A3.5 3.5 0 0 0 8 19h1"/><path d="M15 4a3 3 0 0 1 3 3v1a3 3 0 0 1 2 5.5A3.5 3.5 0 0 1 16 19h-1"/><path d="M9 4v16M15 4v16M9 9h6M9 14h6"/></symbol>
  <symbol id="palo-icon-search" viewBox="0 0 24 24"><circle cx="11" cy="11" r="6"/><path d="m16 16 4 4"/></symbol>
  <symbol id="palo-icon-clipboard" viewBox="0 0 24 24"><path d="M9 4h6l1 2h3v15H5V6h3l1-2Z"/><path d="M9 10h6M9 14h6M9 18h4"/></symbol>
  <symbol id="palo-icon-file" viewBox="0 0 24 24"><path d="M6 3h8l4 4v14H6V3Z"/><path d="M14 3v5h5"/><path d="M9 13h6M9 17h4"/></symbol>
  <symbol id="palo-icon-folder" viewBox="0 0 24 24"><path d="M3 7h7l2 2h9v10H3V7Z"/></symbol>
  <symbol id="palo-icon-upload" viewBox="0 0 24 24"><path d="M12 16V4"/><path d="m7 9 5-5 5 5"/><path d="M5 20h14"/></symbol>
  <symbol id="palo-icon-download" viewBox="0 0 24 24"><path d="M12 4v12"/><path d="m7 11 5 5 5-5"/><path d="M5 20h14"/></symbol>
  <symbol id="palo-icon-save" viewBox="0 0 24 24"><path d="M5 4h12l2 2v14H5V4Z"/><path d="M8 4v6h8"/><path d="M8 20v-6h8v6"/></symbol>
  <symbol id="palo-icon-refresh" viewBox="0 0 24 24"><path d="M20 12a8 8 0 0 1-13.5 5.8"/><path d="M4 12A8 8 0 0 1 17.5 6.2"/><path d="M17 3v4h4M7 21v-4H3"/></symbol>
  <symbol id="palo-icon-warning" viewBox="0 0 24 24"><path d="M12 4 21 20H3L12 4Z"/><path d="M12 9v5M12 17h.01"/></symbol>
  <symbol id="palo-icon-check" viewBox="0 0 24 24"><path d="m5 12 4 4 10-10"/></symbol>
  <symbol id="palo-icon-x" viewBox="0 0 24 24"><path d="M6 6l12 12M18 6 6 18"/></symbol>
  <symbol id="palo-icon-lock" viewBox="0 0 24 24"><rect x="5" y="10" width="14" height="10" rx="2"/><path d="M8 10V7a4 4 0 0 1 8 0v3"/></symbol>
  <symbol id="palo-icon-mail" viewBox="0 0 24 24"><path d="M4 6h16v12H4V6Z"/><path d="m4 7 8 6 8-6"/></symbol>
  <symbol id="palo-icon-globe" viewBox="0 0 24 24"><circle cx="12" cy="12" r="9"/><path d="M3 12h18M12 3a14 14 0 0 1 0 18M12 3a14 14 0 0 0 0 18"/></symbol>
  <symbol id="palo-icon-users" viewBox="0 0 24 24"><path d="M9 11a3 3 0 1 0 0-6 3 3 0 0 0 0 6ZM3 20a6 6 0 0 1 12 0"/><path d="M17 10a2.5 2.5 0 1 0 0-5"/><path d="M17 14a5 5 0 0 1 4 5"/></symbol>
  <symbol id="palo-icon-user" viewBox="0 0 24 24"><circle cx="12" cy="8" r="4"/><path d="M4 21a8 8 0 0 1 16 0"/></symbol>
  <symbol id="palo-icon-target" viewBox="0 0 24 24"><circle cx="12" cy="12" r="8"/><circle cx="12" cy="12" r="4"/><path d="M12 2v3M12 19v3M2 12h3M19 12h3"/></symbol>
  <symbol id="palo-icon-wrench" viewBox="0 0 24 24"><path d="M14.7 6.3a4 4 0 0 0 5 5L11 20l-4-4 8.7-8.7Z"/><path d="M7 16l-3 3"/></symbol>
  <symbol id="palo-icon-lightbulb" viewBox="0 0 24 24"><path d="M9 18h6"/><path d="M10 22h4"/><path d="M8 14a6 6 0 1 1 8 0c-1 1-1 2-1 4h-6c0-2 0-3-1-4Z"/></symbol>
  <symbol id="palo-icon-trophy" viewBox="0 0 24 24"><path d="M8 4h8v5a4 4 0 0 1-8 0V4Z"/><path d="M8 6H4a4 4 0 0 0 4 4M16 6h4a4 4 0 0 1-4 4"/><path d="M12 13v5M8 21h8"/></symbol>
  <symbol id="palo-icon-dice" viewBox="0 0 24 24"><rect x="5" y="5" width="14" height="14" rx="3"/><circle cx="9" cy="9" r=".8"/><circle cx="15" cy="15" r=".8"/><circle cx="15" cy="9" r=".8"/><circle cx="9" cy="15" r=".8"/></symbol>
  <symbol id="palo-icon-theatre" viewBox="0 0 24 24"><path d="M5 5h7v5a4 4 0 0 1-7 2.6V5Z"/><path d="M12 6h7v5a4 4 0 0 1-7 2.6"/><path d="M7.5 8h.01M10 8h.01M15 9h.01M17.5 9h.01"/><path d="M7.5 12c1 .8 2 .8 3 0M14.5 13c1-.8 2-.8 3 0"/></symbol>
  <symbol id="palo-icon-robot" viewBox="0 0 24 24"><rect x="5" y="7" width="14" height="11" rx="3"/><path d="M12 7V3M8.5 12h.01M15.5 12h.01M9 16h6"/><path d="M3 12h2M19 12h2"/></symbol>
  <symbol id="palo-icon-construction" viewBox="0 0 24 24"><path d="M4 18h16"/><path d="M6 18 11 5h2l5 13"/><path d="M8 13h8M9 10h6"/></symbol>
  <symbol id="palo-icon-dna" viewBox="0 0 24 24"><path d="M7 4c8 4 8 12 0 16M17 4c-8 4-8 12 0 16"/><path d="M8 7h8M8 12h8M8 17h8"/></symbol>
  <symbol id="palo-icon-microscope" viewBox="0 0 24 24"><path d="M10 4 8 6l6 6 2-2-6-6Z"/><path d="M12 12 8 16M5 20h14M9 20a6 6 0 0 0 6-6"/></symbol>
  <symbol id="palo-icon-code" viewBox="0 0 24 24"><path d="m8 8-4 4 4 4M16 8l4 4-4 4M13 5l-2 14"/></symbol>
  <symbol id="palo-icon-package" viewBox="0 0 24 24"><path d="M4 8 12 4l8 4-8 4-8-4Z"/><path d="M4 8v8l8 4 8-4V8"/><path d="M12 12v8"/></symbol>
  <symbol id="palo-icon-money" viewBox="0 0 24 24"><rect x="4" y="6" width="16" height="12" rx="2"/><circle cx="12" cy="12" r="3"/><path d="M7 9h.01M17 15h.01"/></symbol>
  <symbol id="palo-icon-handshake" viewBox="0 0 24 24"><path d="M8 12 4 9l4-4 4 4"/><path d="m16 12 4-3-4-4-4 4"/><path d="M8 12l3 3a2 2 0 0 0 3 0l2-2"/><path d="M7 13l4 4M17 13l-4 4"/></symbol>
  <symbol id="palo-icon-rocket" viewBox="0 0 24 24"><path d="M5 19c1-4 3-8 7-12 3-3 6-4 8-3-.5 4-2 7-5 10-4 4-8 6-12 7Z"/><path d="M14 6l4 4M5 19l-2 2 5-1"/></symbol>
  <symbol id="palo-icon-book" viewBox="0 0 24 24"><path d="M5 4h10a4 4 0 0 1 4 4v12H8a3 3 0 0 0-3-3V4Z"/><path d="M5 17V4"/></symbol>
  <symbol id="palo-icon-accessibility" viewBox="0 0 24 24"><circle cx="12" cy="4" r="2"/><path d="M5 8h14M12 8v12M8 12l-2 8M16 12l2 8"/></symbol>
  <symbol id="palo-icon-bug" viewBox="0 0 24 24"><rect x="7" y="7" width="10" height="12" rx="5"/><path d="M9 7V5a3 3 0 0 1 6 0v2M4 12h3M17 12h3M5 18l3-2M19 18l-3-2M5 7l3 2M19 7l-3 2"/></symbol>
  <symbol id="palo-icon-question" viewBox="0 0 24 24"><path d="M9 9a3 3 0 1 1 5 2.2c-1.4.9-2 1.6-2 3.3"/><path d="M12 19h.01"/><circle cx="12" cy="12" r="9"/></symbol>
  <symbol id="palo-icon-building" viewBox="0 0 24 24"><path d="M5 21V5l7-3 7 3v16"/><path d="M9 21v-5h6v5M9 7h.01M12 7h.01M15 7h.01M9 11h.01M12 11h.01M15 11h.01"/></symbol>
  <symbol id="palo-icon-hospital" viewBox="0 0 24 24"><path d="M5 21V5h14v16"/><path d="M9 21v-5h6v5M12 8v5M9.5 10.5h5"/></symbol>
  <symbol id="palo-icon-bank" viewBox="0 0 24 24"><path d="M3 9 12 4l9 5H3Z"/><path d="M5 9v9M9 9v9M15 9v9M19 9v9M3 21h18"/></symbol>
  <symbol id="palo-icon-megaphone" viewBox="0 0 24 24"><path d="M4 13h4l10 4V7L8 11H4v2Z"/><path d="M8 13v5"/></symbol>
  <symbol id="palo-icon-chat" viewBox="0 0 24 24"><path d="M4 5h16v11H8l-4 4V5Z"/><path d="M8 9h8M8 13h5"/></symbol>
  <symbol id="palo-icon-eye" viewBox="0 0 24 24"><path d="M3 12s3-6 9-6 9 6 9 6-3 6-9 6-9-6-9-6Z"/><circle cx="12" cy="12" r="3"/></symbol>
  <symbol id="palo-icon-credit-card" viewBox="0 0 24 24"><rect x="4" y="6" width="16" height="12" rx="2"/><path d="M4 10h16M7 15h3"/></symbol>
  <symbol id="palo-icon-stethoscope" viewBox="0 0 24 24"><path d="M6 4v5a4 4 0 0 0 8 0V4"/><path d="M10 13v2a4 4 0 0 0 8 0v-2"/><circle cx="18" cy="11" r="2"/></symbol>
  <symbol id="palo-icon-pen" viewBox="0 0 24 24"><path d="M4 20l4-1 11-11-3-3L5 16l-1 4Z"/><path d="m14 6 3 3"/></symbol>
  <symbol id="palo-icon-siren" viewBox="0 0 24 24"><path d="M7 18v-5a5 5 0 0 1 10 0v5"/><path d="M5 21h14M4 8 2 6M20 8l2-2M12 3V1"/></symbol>
  <symbol id="palo-icon-cart" viewBox="0 0 24 24"><path d="M3 4h2l2 12h11l2-8H7"/><circle cx="9" cy="20" r="1.5"/><circle cx="17" cy="20" r="1.5"/></symbol>
  <symbol id="palo-icon-mobile" viewBox="0 0 24 24"><rect x="8" y="3" width="8" height="18" rx="2"/><path d="M11 18h2"/></symbol>
  <symbol id="palo-icon-poison" viewBox="0 0 24 24"><path d="M9 3h6v5l4 8a4 4 0 0 1-3.6 5H8.6A4 4 0 0 1 5 16l4-8V3Z"/><path d="M9 8h6M10 15h4"/></symbol>
  <symbol id="palo-icon-plant" viewBox="0 0 24 24"><path d="M12 21V10"/><path d="M12 10C8 10 6 8 5 5c4 0 6 2 7 5Z"/><path d="M12 12c4 0 6-2 7-5-4 0-6 2-7 5Z"/></symbol>
  <symbol id="palo-icon-moon" viewBox="0 0 24 24"><path d="M18 16.5A8 8 0 0 1 9.5 6 8 8 0 1 0 18 16.5Z"/></symbol>
  <symbol id="palo-icon-labyrinth" viewBox="0 0 24 24"><path d="M12 4a8 8 0 1 1-8 8"/><path d="M12 8a4 4 0 1 1-4 4"/><path d="M12 12h8"/></symbol>
  <symbol id="palo-icon-test-tube" viewBox="0 0 24 24"><path d="M9 3h6"/><path d="M10 3v6l-5 8a3 3 0 0 0 2.6 4h8.8A3 3 0 0 0 19 17l-5-8V3"/><path d="M8 14h8"/></symbol>
  <symbol id="palo-icon-trash" viewBox="0 0 24 24"><path d="M4 7h16"/><path d="M9 7V4h6v3"/><path d="M7 7l1 14h8l1-14"/><path d="M10 11v6M14 11v6"/></symbol>
  <symbol id="palo-icon-spark" viewBox="0 0 24 24"><path d="M12 3l1.8 5.2L19 10l-5.2 1.8L12 17l-1.8-5.2L5 10l5.2-1.8L12 3Z"/><path d="M19 15l.8 2.2L22 18l-2.2.8L19 21l-.8-2.2L16 18l2.2-.8L19 15Z"/></symbol>
</svg>
