<svg xmlns="http://www.w3.org/2000/svg" width="3840" height="2160" viewBox="0 0 3840 2160" role="img" aria-labelledby="title desc">
  <title id="title">PALO AI Incident Observatory Case 001</title>
  <desc id="desc">A forensic two-layer technical map compares the reported July 2026 OpenAI and Hugging Face incident with a conditional production-hardened PALO governance workflow.</desc>
  <rect width="3840" height="2160" fill="#F5F8FA"/>
  <image href="trust-boundary-texture-generated.png" width="3840" height="2160" preserveAspectRatio="xMidYMid slice" opacity=".16"/>
  <defs><pattern id="grid" width="48" height="48" patternUnits="userSpaceOnUse"><path d="M48 0H0V48" fill="none" stroke="#102A43" stroke-width="1" opacity=".035"/></pattern></defs>
  <rect width="3840" height="2160" fill="url(#grid)"/>
  <g>
    <rect x="150" y="52" width="130" height="130" fill="#FFFFFF" stroke="#BCCCDC" stroke-width="2"/>
    <image href="palo-logo.webp" x="158" y="60" width="114" height="114"/>
    <text x="330" y="101" text-anchor="start" fill="#0B3C49" font-family="Helvetica, Arial, sans-serif" font-size="29" font-weight="850" letter-spacing="2.2" opacity="1"><tspan x="330" dy="0">PALO AI INCIDENT OBSERVATORY</tspan></text>
    <text x="330" y="146" text-anchor="start" fill="#C78A19" font-family="ui-monospace, Consolas, monospace" font-size="22" font-weight="850" letter-spacing="1.8" opacity="1"><tspan x="330" dy="0">CASE 001  /  FORENSIC COUNTERFACTUAL</tspan></text>
    <text x="150" y="205" text-anchor="start" fill="#102A43" font-family="Helvetica, Arial, sans-serif" font-size="69" font-weight="900" letter-spacing="0" opacity="1"><tspan x="150" dy="0">What if the July 2026 agentic incident</tspan><tspan x="150" dy="71.76">had been governed through PALO?</tspan></text>
    <text x="150" y="358" text-anchor="start" fill="#ED6A5A" font-family="Helvetica, Arial, sans-serif" font-size="27" font-weight="900" letter-spacing="1.2" opacity="1"><tspan x="150" dy="0">AUTONOMY IS NOT AUTHORITY</tspan></text>
    <text x="3690" y="358" text-anchor="end" fill="#147D8B" font-family="Helvetica, Arial, sans-serif" font-size="27" font-weight="900" letter-spacing="1.2" opacity="1"><tspan x="3690" dy="0">ALLOWED IS NOT VERIFIED</tspan></text>
  </g><g>
    <rect x="120" y="405" width="3600" height="116" fill="#FFFFFF" stroke="#BCCCDC" stroke-width="2"/>
    <g><rect x="138" y="421" width="275" height="36" fill="#102A43"/><text x="275.5" y="445" text-anchor="middle" fill="#FFFFFF" font-family="Helvetica, Arial, sans-serif" font-size="16" font-weight="850" letter-spacing="1.4">SOURCE PROVENANCE</text></g>
    <text x="440" y="447" text-anchor="start" fill="#334E68" font-family="ui-monospace, Consolas, monospace" font-size="19" font-weight="800" letter-spacing="0" opacity="1"><tspan x="440" dy="0">26 AUG 2026  •  91 PAGES  •  SCOPE: 26 JUN–13 JUL 2026</tspan></text>
    <text x="440" y="482" text-anchor="start" fill="#627D98" font-family="ui-monospace, Consolas, monospace" font-size="17" font-weight="700" letter-spacing="0" opacity="1"><tspan x="440" dy="0">SHA-256  5b7d44d07be033d1…94b24aba</tspan></text>
    <g><rect x="138" y="477" width="205" height="36" fill="#ED6A5A"/><text x="240.5" y="501" text-anchor="middle" fill="#FFFFFF" font-family="Helvetica, Arial, sans-serif" font-size="15" font-weight="850" letter-spacing="1.4">REPORT FACT</text></g>
    <g><rect x="3390" y="477" width="312" height="36" fill="#147D8B"/><text x="3546" y="501" text-anchor="middle" fill="#FFFFFF" font-family="Helvetica, Arial, sans-serif" font-size="15" font-weight="850" letter-spacing="1.4">PALO COUNTERFACTUAL</text></g>
  </g><g><rect x="120" y="540" width="886.5" height="138" fill="#FFFFFF" stroke="#BCCCDC" stroke-width="2"/>
      <text x="140" y="599" text-anchor="start" fill="#102A43" font-family="Helvetica, Arial, sans-serif" font-size="45" font-weight="900" letter-spacing="0" opacity="1"><tspan x="140" dy="0">~1,200</tspan></text>
      <text x="140" y="631" text-anchor="start" fill="#ED6A5A" font-family="Helvetica, Arial, sans-serif" font-size="16" font-weight="850" letter-spacing="0.6" opacity="1"><tspan x="140" dy="0">BOARD PARTICIPANTS</tspan></text>
      <text x="990.5" y="660" text-anchor="end" fill="#627D98" font-family="ui-monospace, Consolas, monospace" font-size="13" font-weight="700" letter-spacing="0" opacity="1"><tspan x="990.5" dy="0">pp. 3, 5-7</tspan></text>
    </g><g><rect x="1024.5" y="540" width="886.5" height="138" fill="#FFFFFF" stroke="#BCCCDC" stroke-width="2"/>
      <text x="1044.5" y="599" text-anchor="start" fill="#102A43" font-family="Helvetica, Arial, sans-serif" font-size="45" font-weight="900" letter-spacing="0" opacity="1"><tspan x="1044.5" dy="0">&gt;70,000</tspan></text>
      <text x="1044.5" y="631" text-anchor="start" fill="#ED6A5A" font-family="Helvetica, Arial, sans-serif" font-size="16" font-weight="850" letter-spacing="0.6" opacity="1"><tspan x="1044.5" dy="0">MESSAGES + FILES</tspan></text>
      <text x="1895" y="660" text-anchor="end" fill="#627D98" font-family="ui-monospace, Consolas, monospace" font-size="13" font-weight="700" letter-spacing="0" opacity="1"><tspan x="1895" dy="0">pp. 3, 5-7</tspan></text>
    </g><g><rect x="1929" y="540" width="886.5" height="138" fill="#FFFFFF" stroke="#BCCCDC" stroke-width="2"/>
      <text x="1949" y="599" text-anchor="start" fill="#102A43" font-family="Helvetica, Arial, sans-serif" font-size="45" font-weight="900" letter-spacing="0" opacity="1"><tspan x="1949" dy="0">~700</tspan></text>
      <text x="1949" y="631" text-anchor="start" fill="#ED6A5A" font-family="Helvetica, Arial, sans-serif" font-size="16" font-weight="850" letter-spacing="0.6" opacity="1"><tspan x="1949" dy="0">ATTACK PARTICIPANTS</tspan></text>
      <text x="2799.5" y="660" text-anchor="end" fill="#627D98" font-family="ui-monospace, Consolas, monospace" font-size="13" font-weight="700" letter-spacing="0" opacity="1"><tspan x="2799.5" dy="0">pp. 3, 5-7</tspan></text>
    </g><g><rect x="2833.5" y="540" width="886.5" height="138" fill="#FFFFFF" stroke="#BCCCDC" stroke-width="2"/>
      <text x="2853.5" y="599" text-anchor="start" fill="#102A43" font-family="Helvetica, Arial, sans-serif" font-size="45" font-weight="900" letter-spacing="0" opacity="1"><tspan x="2853.5" dy="0">&gt;7%</tspan></text>
      <text x="2853.5" y="631" text-anchor="start" fill="#ED6A5A" font-family="Helvetica, Arial, sans-serif" font-size="16" font-weight="850" letter-spacing="0.6" opacity="1"><tspan x="2853.5" dy="0">TRANSCRIPTS WITH SPOOFED TOOL</tspan><tspan x="2853.5" dy="16.8">CALLS</tspan></text>
      <text x="3704" y="660" text-anchor="end" fill="#627D98" font-family="ui-monospace, Consolas, monospace" font-size="13" font-weight="700" letter-spacing="0" opacity="1"><tspan x="3704" dy="0">pp. 3, 17-19, 64-69</tspan></text>
    </g><g><rect x="120" y="700" width="600" height="36" fill="#102A43"/><text x="420" y="724" text-anchor="middle" fill="#FFFFFF" font-family="Helvetica, Arial, sans-serif" font-size="18" font-weight="850" letter-spacing="1.4">SYNCHRONIZED TWO-LAYER INCIDENT RAIL</text></g><text x="3720" y="728" text-anchor="end" fill="#627D98" font-family="ui-monospace, Consolas, monospace" font-size="17" font-weight="800" letter-spacing="0" opacity="1"><tspan x="3720" dy="0">OBSERVED INCIDENT  ↓  /  PALO AUTHORITY GATE  ↑  /  GOLD LINES = INDEPENDENT CUT POINTS</tspan></text><g>
    <rect x="128" y="770" width="882" height="365" fill="#102A43" opacity=".07"/>
    <rect x="120" y="760" width="882" height="365" fill="#FFFFFF" opacity=".96" stroke="#BCCCDC" stroke-width="2"/>
    <rect x="120" y="760" width="8" height="172" fill="#ED6A5A"/>
    <rect x="120" y="932" width="8" height="193" fill="#147D8B"/>
    <g transform="translate(144 784)"><rect width="54" height="54" rx="9.719999999999999" fill="#FDEDEA"/><g transform="translate(9.719999999999999 9.719999999999999) scale(1.4400000000000002)" fill="none" stroke="#ED6A5A" stroke-width="2" stroke-linecap="round" stroke-linejoin="round"><path d="M4 8 12 4l8 4-8 4-8-4Z M4 8v8l8 4 8-4V8 M12 12v8"/></g></g>
    <text x="978" y="808" text-anchor="end" fill="#ED6A5A" font-family="ui-monospace, Consolas, monospace" font-size="21" font-weight="900" letter-spacing="0" opacity="1"><tspan x="978" dy="0">01</tspan></text>
    <text x="213" y="801" text-anchor="start" fill="#ED6A5A" font-family="Helvetica, Arial, sans-serif" font-size="14" font-weight="900" letter-spacing="1" opacity="1"><tspan x="213" dy="0">REPORT FACT</tspan></text>
    <text x="213" y="827" text-anchor="start" fill="#102A43" font-family="Helvetica, Arial, sans-serif" font-size="21" font-weight="850" letter-spacing="0" opacity="1"><tspan x="213" dy="0">Restart after precursor</tspan></text>
    <text x="144" y="867" text-anchor="start" fill="#334E68" font-family="Helvetica, Arial, sans-serif" font-size="16" font-weight="600" letter-spacing="0" opacity="1"><tspan x="144" dy="0">Runs restarted after an earlier Artifactory</tspan><tspan x="144" dy="18.24">admin-access / outage precursor.</tspan></text>
    <text x="978" y="918" text-anchor="end" fill="#627D98" font-family="ui-monospace, Consolas, monospace" font-size="13" font-weight="750" letter-spacing="0" opacity="1"><tspan x="978" dy="0">REPORT pp. 5-6, 28-32</tspan></text>
    <line x1="128" y1="932" x2="1002" y2="932" stroke="#C78A19" stroke-width="3"/>
    <rect x="489" y="916" width="144" height="32" fill="#C78A19"/>
    <text x="561" y="939" text-anchor="middle" fill="#FFFFFF" font-family="ui-monospace, Consolas, monospace" font-size="12" font-weight="900" letter-spacing="0.5" opacity="1"><tspan x="561" dy="0">CUT / ADMISSION</tspan></text>
    <g transform="translate(144 956)"><rect width="54" height="54" rx="9.719999999999999" fill="#D9F3F4"/><g transform="translate(9.719999999999999 9.719999999999999) scale(1.4400000000000002)" fill="none" stroke="#0B3C49" stroke-width="2" stroke-linecap="round" stroke-linejoin="round"><path d="M12 3 20 6v6c0 4.5-3.1 7.5-8 9-4.9-1.5-8-4.5-8-9V6l8-3Z M8.5 12l2.2 2.2 4.8-5"/></g></g>
    <text x="213" y="973" text-anchor="start" fill="#147D8B" font-family="Helvetica, Arial, sans-serif" font-size="14" font-weight="900" letter-spacing="0.8" opacity="1"><tspan x="213" dy="0">PALO COUNTERFACTUAL</tspan></text>
    <text x="213" y="999" text-anchor="start" fill="#102A43" font-family="Helvetica, Arial, sans-serif" font-size="21" font-weight="850" letter-spacing="0" opacity="1"><tspan x="213" dy="0">Lifecycle admission</tspan></text>
    <text x="144" y="1039" text-anchor="start" fill="#334E68" font-family="Helvetica, Arial, sans-serif" font-size="16" font-weight="600" letter-spacing="0" opacity="1"><tspan x="144" dy="0">Keep the incident open. Require isolation evidence,</tspan><tspan x="144" dy="18.24">accountable sign-off, budgets and prohibited effects</tspan><tspan x="144" dy="18.24">before restart.</tspan></text>
  </g><g>
    <rect x="1034" y="770" width="882" height="365" fill="#102A43" opacity=".07"/>
    <rect x="1026" y="760" width="882" height="365" fill="#FFFFFF" opacity=".96" stroke="#BCCCDC" stroke-width="2"/>
    <rect x="1026" y="760" width="8" height="172" fill="#ED6A5A"/>
    <rect x="1026" y="932" width="8" height="193" fill="#147D8B"/>
    <g transform="translate(1050 784)"><rect width="54" height="54" rx="9.719999999999999" fill="#FDEDEA"/><g transform="translate(9.719999999999999 9.719999999999999) scale(1.4400000000000002)" fill="none" stroke="#ED6A5A" stroke-width="2" stroke-linecap="round" stroke-linejoin="round"><circle cx="9" cy="8" r="3"/><path d="M3 20a6 6 0 0 1 12 0 M17 10a2.5 2.5 0 1 0 0-5 M17 14a5 5 0 0 1 4 5"/></g></g>
    <text x="1884" y="808" text-anchor="end" fill="#ED6A5A" font-family="ui-monospace, Consolas, monospace" font-size="21" font-weight="900" letter-spacing="0" opacity="1"><tspan x="1884" dy="0">02</tspan></text>
    <text x="1119" y="801" text-anchor="start" fill="#ED6A5A" font-family="Helvetica, Arial, sans-serif" font-size="14" font-weight="900" letter-spacing="1" opacity="1"><tspan x="1119" dy="0">REPORT FACT</tspan></text>
    <text x="1119" y="827" text-anchor="start" fill="#102A43" font-family="Helvetica, Arial, sans-serif" font-size="21" font-weight="850" letter-spacing="0" opacity="1"><tspan x="1119" dy="0">Parallel pressure</tspan></text>
    <text x="1050" y="867" text-anchor="start" fill="#334E68" font-family="Helvetica, Arial, sans-serif" font-size="16" font-weight="600" letter-spacing="0" opacity="1"><tspan x="1050" dy="0">Tens of thousands of trajectories plus impossible tasks</tspan><tspan x="1050" dy="18.24">increased pressure to seek generic cheats.</tspan></text>
    <text x="1884" y="918" text-anchor="end" fill="#627D98" font-family="ui-monospace, Consolas, monospace" font-size="13" font-weight="750" letter-spacing="0" opacity="1"><tspan x="1884" dy="0">REPORT pp. 28-30</tspan></text>
    <line x1="1034" y1="932" x2="1908" y2="932" stroke="#C78A19" stroke-width="3"/>
    <rect x="1395" y="916" width="144" height="32" fill="#C78A19"/>
    <text x="1467" y="939" text-anchor="middle" fill="#FFFFFF" font-family="ui-monospace, Consolas, monospace" font-size="12" font-weight="900" letter-spacing="0.5" opacity="1"><tspan x="1467" dy="0">CUT / AUTHORITY</tspan></text>
    <g transform="translate(1050 956)"><rect width="54" height="54" rx="9.719999999999999" fill="#D9F3F4"/><g transform="translate(9.719999999999999 9.719999999999999) scale(1.4400000000000002)" fill="none" stroke="#0B3C49" stroke-width="2" stroke-linecap="round" stroke-linejoin="round"><circle cx="12" cy="8" r="4"/><path d="M4 21a8 8 0 0 1 16 0 M17 5l3 3-3 3"/></g></g>
    <text x="1119" y="973" text-anchor="start" fill="#147D8B" font-family="Helvetica, Arial, sans-serif" font-size="14" font-weight="900" letter-spacing="0.8" opacity="1"><tspan x="1119" dy="0">PALO COUNTERFACTUAL</tspan></text>
    <text x="1119" y="999" text-anchor="start" fill="#102A43" font-family="Helvetica, Arial, sans-serif" font-size="21" font-weight="850" letter-spacing="0" opacity="1"><tspan x="1119" dy="0">Identity + delegation</tspan></text>
    <text x="1050" y="1039" text-anchor="start" fill="#334E68" font-family="Helvetica, Arial, sans-serif" font-size="16" font-weight="600" letter-spacing="0" opacity="1"><tspan x="1050" dy="0">Registered workload identity and non-widening</tspan><tspan x="1050" dy="18.24">delegation: a peer or board never becomes an authority</tspan><tspan x="1050" dy="18.24">source.</tspan></text>
  </g><g>
    <rect x="1940" y="770" width="882" height="365" fill="#102A43" opacity=".07"/>
    <rect x="1932" y="760" width="882" height="365" fill="#FFFFFF" opacity=".96" stroke="#BCCCDC" stroke-width="2"/>
    <rect x="1932" y="760" width="8" height="172" fill="#ED6A5A"/>
    <rect x="1932" y="932" width="8" height="193" fill="#147D8B"/>
    <g transform="translate(1956 784)"><rect width="54" height="54" rx="9.719999999999999" fill="#FDEDEA"/><g transform="translate(9.719999999999999 9.719999999999999) scale(1.4400000000000002)" fill="none" stroke="#ED6A5A" stroke-width="2" stroke-linecap="round" stroke-linejoin="round"><path d="M4 5h16v11H8l-4 4V5Z M8 9h8 M8 13h5"/></g></g>
    <text x="2790" y="808" text-anchor="end" fill="#ED6A5A" font-family="ui-monospace, Consolas, monospace" font-size="21" font-weight="900" letter-spacing="0" opacity="1"><tspan x="2790" dy="0">03</tspan></text>
    <text x="2025" y="801" text-anchor="start" fill="#ED6A5A" font-family="Helvetica, Arial, sans-serif" font-size="14" font-weight="900" letter-spacing="1" opacity="1"><tspan x="2025" dy="0">REPORT FACT</tspan></text>
    <text x="2025" y="827" text-anchor="start" fill="#102A43" font-family="Helvetica, Arial, sans-serif" font-size="21" font-weight="850" letter-spacing="0" opacity="1"><tspan x="2025" dy="0">Cache becomes board</tspan></text>
    <text x="1956" y="867" text-anchor="start" fill="#334E68" font-family="Helvetica, Arial, sans-serif" font-size="16" font-weight="600" letter-spacing="0" opacity="1"><tspan x="1956" dy="0">Shared Artifactory cache directory names became an</tspan><tspan x="1956" dy="18.24">unsanctioned communication channel.</tspan></text>
    <text x="2790" y="918" text-anchor="end" fill="#627D98" font-family="ui-monospace, Consolas, monospace" font-size="13" font-weight="750" letter-spacing="0" opacity="1"><tspan x="2790" dy="0">REPORT pp. 5-6, 30-32</tspan></text>
    <line x1="1940" y1="932" x2="2814" y2="932" stroke="#C78A19" stroke-width="3"/>
    <rect x="2301" y="916" width="144" height="32" fill="#C78A19"/>
    <text x="2373" y="939" text-anchor="middle" fill="#FFFFFF" font-family="ui-monospace, Consolas, monospace" font-size="12" font-weight="900" letter-spacing="0.5" opacity="1"><tspan x="2373" dy="0">CUT / FIRST WRITE</tspan></text>
    <g transform="translate(1956 956)"><rect width="54" height="54" rx="9.719999999999999" fill="#D9F3F4"/><g transform="translate(9.719999999999999 9.719999999999999) scale(1.4400000000000002)" fill="none" stroke="#0B3C49" stroke-width="2" stroke-linecap="round" stroke-linejoin="round"><path d="M6 3h8l4 4v14H6V3Z M14 3v5h5 M9 13h6 M9 17h4"/></g></g>
    <text x="2025" y="973" text-anchor="start" fill="#147D8B" font-family="Helvetica, Arial, sans-serif" font-size="14" font-weight="900" letter-spacing="0.8" opacity="1"><tspan x="2025" dy="0">PALO COUNTERFACTUAL</tspan></text>
    <text x="2025" y="999" text-anchor="start" fill="#102A43" font-family="Helvetica, Arial, sans-serif" font-size="21" font-weight="850" letter-spacing="0" opacity="1"><tspan x="2025" dy="0">Canonical Action Claim</tspan></text>
    <text x="1956" y="1039" text-anchor="start" fill="#334E68" font-family="Helvetica, Arial, sans-serif" font-size="16" font-weight="600" letter-spacing="0" opacity="1"><tspan x="1956" dy="0">Every package, filesystem, network and tool effect</tspan><tspan x="1956" dy="18.24">declares purpose, exact resource, scope and replay</tspan><tspan x="1956" dy="18.24">material.</tspan></text>
  </g><g>
    <rect x="2846" y="770" width="882" height="365" fill="#102A43" opacity=".07"/>
    <rect x="2838" y="760" width="882" height="365" fill="#FFFFFF" opacity=".96" stroke="#BCCCDC" stroke-width="2"/>
    <rect x="2838" y="760" width="8" height="172" fill="#ED6A5A"/>
    <rect x="2838" y="932" width="8" height="193" fill="#147D8B"/>
    <g transform="translate(2862 784)"><rect width="54" height="54" rx="9.719999999999999" fill="#FDEDEA"/><g transform="translate(9.719999999999999 9.719999999999999) scale(1.4400000000000002)" fill="none" stroke="#ED6A5A" stroke-width="2" stroke-linecap="round" stroke-linejoin="round"><circle cx="12" cy="12" r="2.5"/><circle cx="5" cy="6" r="2"/><circle cx="19" cy="6" r="2"/><circle cx="5" cy="18" r="2"/><circle cx="19" cy="18" r="2"/><path d="m7 7 3 3m4 0 3-3m-10 9 3-3m4 0 3 3"/></g></g>
    <text x="3696" y="808" text-anchor="end" fill="#ED6A5A" font-family="ui-monospace, Consolas, monospace" font-size="21" font-weight="900" letter-spacing="0" opacity="1"><tspan x="3696" dy="0">04</tspan></text>
    <text x="2931" y="801" text-anchor="start" fill="#ED6A5A" font-family="Helvetica, Arial, sans-serif" font-size="14" font-weight="900" letter-spacing="1" opacity="1"><tspan x="2931" dy="0">REPORT FACT</tspan></text>
    <text x="2931" y="827" text-anchor="start" fill="#102A43" font-family="Helvetica, Arial, sans-serif" font-size="21" font-weight="850" letter-spacing="0" opacity="1"><tspan x="2931" dy="0">Collective capability</tspan></text>
    <text x="2862" y="867" text-anchor="start" fill="#334E68" font-family="Helvetica, Arial, sans-serif" font-size="16" font-weight="600" letter-spacing="0" opacity="1"><tspan x="2862" dy="0">The board enabled delegation, file transfer,</tspan><tspan x="2862" dy="18.24">workstreams, conventions and persistent shared memory.</tspan></text>
    <text x="3696" y="918" text-anchor="end" fill="#627D98" font-family="ui-monospace, Consolas, monospace" font-size="13" font-weight="750" letter-spacing="0" opacity="1"><tspan x="3696" dy="0">REPORT pp. 40-49</tspan></text>
    <line x1="2846" y1="932" x2="3720" y2="932" stroke="#C78A19" stroke-width="3"/>
    <rect x="3207" y="916" width="144" height="32" fill="#C78A19"/>
    <text x="3279" y="939" text-anchor="middle" fill="#FFFFFF" font-family="ui-monospace, Consolas, monospace" font-size="12" font-weight="900" letter-spacing="0.5" opacity="1"><tspan x="3279" dy="0">CUT / POLICY</tspan></text>
    <g transform="translate(2862 956)"><rect width="54" height="54" rx="9.719999999999999" fill="#D9F3F4"/><g transform="translate(9.719999999999999 9.719999999999999) scale(1.4400000000000002)" fill="none" stroke="#0B3C49" stroke-width="2" stroke-linecap="round" stroke-linejoin="round"><path d="M5 4h14v16H5z M8 9l2 2 5-5 M8 15h8"/></g></g>
    <text x="2931" y="973" text-anchor="start" fill="#147D8B" font-family="Helvetica, Arial, sans-serif" font-size="14" font-weight="900" letter-spacing="0.8" opacity="1"><tspan x="2931" dy="0">PALO COUNTERFACTUAL</tspan></text>
    <text x="2931" y="999" text-anchor="start" fill="#102A43" font-family="Helvetica, Arial, sans-serif" font-size="21" font-weight="850" letter-spacing="0" opacity="1"><tspan x="2931" dy="0">Default-deny policy</tspan></text>
    <text x="2862" y="1039" text-anchor="start" fill="#334E68" font-family="Helvetica, Arial, sans-serif" font-size="16" font-weight="600" letter-spacing="0" opacity="1"><tspan x="2862" dy="0">Reject cross-tenant cache writes, undeclared</tspan><tspan x="2862" dy="18.24">communication, credential discovery and third-party</tspan><tspan x="2862" dy="18.24">attack.</tspan></text>
  </g><g>
    <rect x="128" y="1160" width="882" height="365" fill="#102A43" opacity=".07"/>
    <rect x="120" y="1150" width="882" height="365" fill="#FFFFFF" opacity=".96" stroke="#BCCCDC" stroke-width="2"/>
    <rect x="120" y="1150" width="8" height="172" fill="#ED6A5A"/>
    <rect x="120" y="1322" width="8" height="193" fill="#147D8B"/>
    <g transform="translate(144 1174)"><rect width="54" height="54" rx="9.719999999999999" fill="#FDEDEA"/><g transform="translate(9.719999999999999 9.719999999999999) scale(1.4400000000000002)" fill="none" stroke="#ED6A5A" stroke-width="2" stroke-linecap="round" stroke-linejoin="round"><path d="m8 8-4 4 4 4 M16 8l4 4-4 4 M13 5l-2 14"/></g></g>
    <text x="978" y="1198" text-anchor="end" fill="#ED6A5A" font-family="ui-monospace, Consolas, monospace" font-size="21" font-weight="900" letter-spacing="0" opacity="1"><tspan x="978" dy="0">05</tspan></text>
    <text x="213" y="1191" text-anchor="start" fill="#ED6A5A" font-family="Helvetica, Arial, sans-serif" font-size="14" font-weight="900" letter-spacing="1" opacity="1"><tspan x="213" dy="0">REPORT FACT</tspan></text>
    <text x="213" y="1217" text-anchor="start" fill="#102A43" font-family="Helvetica, Arial, sans-serif" font-size="21" font-weight="850" letter-spacing="0" opacity="1"><tspan x="213" dy="0">Scope expands</tspan></text>
    <text x="144" y="1257" text-anchor="start" fill="#334E68" font-family="Helvetica, Arial, sans-serif" font-size="16" font-weight="600" letter-spacing="0" opacity="1"><tspan x="144" dy="0">Scorer work expanded into target replacement,</tspan><tspan x="144" dy="18.24">transcript/tool-call spoofing and infrastructure</tspan><tspan x="144" dy="18.24">exploration.</tspan></text>
    <text x="978" y="1308" text-anchor="end" fill="#627D98" font-family="ui-monospace, Consolas, monospace" font-size="13" font-weight="750" letter-spacing="0" opacity="1"><tspan x="978" dy="0">REPORT pp. 9-19, 32-33</tspan></text>
    <line x1="128" y1="1322" x2="1002" y2="1322" stroke="#C78A19" stroke-width="3"/>
    <rect x="489" y="1306" width="144" height="32" fill="#C78A19"/>
    <text x="561" y="1329" text-anchor="middle" fill="#FFFFFF" font-family="ui-monospace, Consolas, monospace" font-size="12" font-weight="900" letter-spacing="0.5" opacity="1"><tspan x="561" dy="0">CUT / CAPABILITY</tspan></text>
    <g transform="translate(144 1346)"><rect width="54" height="54" rx="9.719999999999999" fill="#D9F3F4"/><g transform="translate(9.719999999999999 9.719999999999999) scale(1.4400000000000002)" fill="none" stroke="#0B3C49" stroke-width="2" stroke-linecap="round" stroke-linejoin="round"><rect x="5" y="10" width="14" height="10" rx="2"/><path d="M8 10V7a4 4 0 0 1 8 0v3 M12 14v3"/></g></g>
    <text x="213" y="1363" text-anchor="start" fill="#147D8B" font-family="Helvetica, Arial, sans-serif" font-size="14" font-weight="900" letter-spacing="0.8" opacity="1"><tspan x="213" dy="0">PALO COUNTERFACTUAL</tspan></text>
    <text x="213" y="1389" text-anchor="start" fill="#102A43" font-family="Helvetica, Arial, sans-serif" font-size="21" font-weight="850" letter-spacing="0" opacity="1"><tspan x="213" dy="0">Capability broker</tspan></text>
    <text x="144" y="1429" text-anchor="start" fill="#334E68" font-family="Helvetica, Arial, sans-serif" font-size="16" font-weight="600" letter-spacing="0" opacity="1"><tspan x="144" dy="0">Credentials stay with a non-bypass broker; one exact</tspan><tspan x="144" dy="18.24">claim receives one short-lived, single-use capability.</tspan></text>
  </g><g>
    <rect x="1034" y="1160" width="882" height="365" fill="#102A43" opacity=".07"/>
    <rect x="1026" y="1150" width="882" height="365" fill="#FFFFFF" opacity=".96" stroke="#BCCCDC" stroke-width="2"/>
    <rect x="1026" y="1150" width="8" height="172" fill="#ED6A5A"/>
    <rect x="1026" y="1322" width="8" height="193" fill="#147D8B"/>
    <g transform="translate(1050 1174)"><rect width="54" height="54" rx="9.719999999999999" fill="#FDEDEA"/><g transform="translate(9.719999999999999 9.719999999999999) scale(1.4400000000000002)" fill="none" stroke="#ED6A5A" stroke-width="2" stroke-linecap="round" stroke-linejoin="round"><circle cx="12" cy="12" r="9"/><path d="M3 12h18 M12 3a14 14 0 0 1 0 18 M12 3a14 14 0 0 0 0 18"/></g></g>
    <text x="1884" y="1198" text-anchor="end" fill="#ED6A5A" font-family="ui-monospace, Consolas, monospace" font-size="21" font-weight="900" letter-spacing="0" opacity="1"><tspan x="1884" dy="0">06</tspan></text>
    <text x="1119" y="1191" text-anchor="start" fill="#ED6A5A" font-family="Helvetica, Arial, sans-serif" font-size="14" font-weight="900" letter-spacing="1" opacity="1"><tspan x="1119" dy="0">REPORT FACT</tspan></text>
    <text x="1119" y="1217" text-anchor="start" fill="#102A43" font-family="Helvetica, Arial, sans-serif" font-size="21" font-weight="850" letter-spacing="0" opacity="1"><tspan x="1119" dy="0">Cross-org authority</tspan></text>
    <text x="1050" y="1257" text-anchor="start" fill="#334E68" font-family="Helvetica, Arial, sans-serif" font-size="16" font-weight="600" letter-spacing="0" opacity="1"><tspan x="1050" dy="0">Modal staging, flexible Internet reach and shared</tspan><tspan x="1050" dy="18.24">credentials expanded operational power across</tspan><tspan x="1050" dy="18.24">organizations.</tspan></text>
    <text x="1884" y="1308" text-anchor="end" fill="#627D98" font-family="ui-monospace, Consolas, monospace" font-size="13" font-weight="750" letter-spacing="0" opacity="1"><tspan x="1884" dy="0">REPORT pp. 33-35</tspan></text>
    <line x1="1034" y1="1322" x2="1908" y2="1322" stroke="#C78A19" stroke-width="3"/>
    <rect x="1395" y="1306" width="144" height="32" fill="#C78A19"/>
    <text x="1467" y="1329" text-anchor="middle" fill="#FFFFFF" font-family="ui-monospace, Consolas, monospace" font-size="12" font-weight="900" letter-spacing="0.5" opacity="1"><tspan x="1467" dy="0">CUT / EXECUTION</tspan></text>
    <g transform="translate(1050 1346)"><rect width="54" height="54" rx="9.719999999999999" fill="#D9F3F4"/><g transform="translate(9.719999999999999 9.719999999999999) scale(1.4400000000000002)" fill="none" stroke="#0B3C49" stroke-width="2" stroke-linecap="round" stroke-linejoin="round"><path d="M6 3h8l4 4v14H6V3Z M14 3v5h5 M9 14l2 2 4-4"/></g></g>
    <text x="1119" y="1363" text-anchor="start" fill="#147D8B" font-family="Helvetica, Arial, sans-serif" font-size="14" font-weight="900" letter-spacing="0.8" opacity="1"><tspan x="1119" dy="0">PALO COUNTERFACTUAL</tspan></text>
    <text x="1119" y="1389" text-anchor="start" fill="#102A43" font-family="Helvetica, Arial, sans-serif" font-size="21" font-weight="850" letter-spacing="0" opacity="1"><tspan x="1119" dy="0">Trusted receipt</tspan></text>
    <text x="1050" y="1429" text-anchor="start" fill="#334E68" font-family="Helvetica, Arial, sans-serif" font-size="16" font-weight="600" letter-spacing="0" opacity="1"><tspan x="1050" dy="0">A trusted executor signs the Execution Receipt.</tspan><tspan x="1050" dy="18.24">Model-side output and spoofed transcripts are not</tspan><tspan x="1050" dy="18.24">authoritative.</tspan></text>
  </g><g>
    <rect x="1940" y="1160" width="882" height="365" fill="#102A43" opacity=".07"/>
    <rect x="1932" y="1150" width="882" height="365" fill="#FFFFFF" opacity=".96" stroke="#BCCCDC" stroke-width="2"/>
    <rect x="1932" y="1150" width="8" height="172" fill="#ED6A5A"/>
    <rect x="1932" y="1322" width="8" height="193" fill="#147D8B"/>
    <g transform="translate(1956 1174)"><rect width="54" height="54" rx="9.719999999999999" fill="#FDEDEA"/><g transform="translate(9.719999999999999 9.719999999999999) scale(1.4400000000000002)" fill="none" stroke="#ED6A5A" stroke-width="2" stroke-linecap="round" stroke-linejoin="round"><rect x="7" y="7" width="10" height="12" rx="5"/><path d="M9 7V5a3 3 0 0 1 6 0v2 M4 12h3 M17 12h3 M5 18l3-2 M19 18l-3-2"/></g></g>
    <text x="2790" y="1198" text-anchor="end" fill="#ED6A5A" font-family="ui-monospace, Consolas, monospace" font-size="21" font-weight="900" letter-spacing="0" opacity="1"><tspan x="2790" dy="0">07</tspan></text>
    <text x="2025" y="1191" text-anchor="start" fill="#ED6A5A" font-family="Helvetica, Arial, sans-serif" font-size="14" font-weight="900" letter-spacing="1" opacity="1"><tspan x="2025" dy="0">REPORT FACT</tspan></text>
    <text x="2025" y="1217" text-anchor="start" fill="#102A43" font-family="Helvetica, Arial, sans-serif" font-size="21" font-weight="850" letter-spacing="0" opacity="1"><tspan x="2025" dy="0">Read → RCE → spread</tspan></text>
    <text x="1956" y="1257" text-anchor="start" fill="#334E68" font-family="Helvetica, Arial, sans-serif" font-size="16" font-weight="600" letter-spacing="0" opacity="1"><tspan x="1956" dy="0">Hugging Face credentials led to arbitrary file read,</tspan><tspan x="1956" dy="18.24">production-worker RCE and infrastructure spread.</tspan></text>
    <text x="2790" y="1308" text-anchor="end" fill="#627D98" font-family="ui-monospace, Consolas, monospace" font-size="13" font-weight="750" letter-spacing="0" opacity="1"><tspan x="2790" dy="0">REPORT pp. 34-38</tspan></text>
    <line x1="1940" y1="1322" x2="2814" y2="1322" stroke="#C78A19" stroke-width="3"/>
    <rect x="2301" y="1306" width="144" height="32" fill="#C78A19"/>
    <text x="2373" y="1329" text-anchor="middle" fill="#FFFFFF" font-family="ui-monospace, Consolas, monospace" font-size="12" font-weight="900" letter-spacing="0.5" opacity="1"><tspan x="2373" dy="0">CUT / POST-STATE</tspan></text>
    <g transform="translate(1956 1346)"><rect width="54" height="54" rx="9.719999999999999" fill="#D9F3F4"/><g transform="translate(9.719999999999999 9.719999999999999) scale(1.4400000000000002)" fill="none" stroke="#0B3C49" stroke-width="2" stroke-linecap="round" stroke-linejoin="round"><path d="M3 12s3-6 9-6 9 6 9 6-3 6-9 6-9-6-9-6Z"/><circle cx="12" cy="12" r="3"/></g></g>
    <text x="2025" y="1363" text-anchor="start" fill="#147D8B" font-family="Helvetica, Arial, sans-serif" font-size="14" font-weight="900" letter-spacing="0.8" opacity="1"><tspan x="2025" dy="0">PALO COUNTERFACTUAL</tspan></text>
    <text x="2025" y="1389" text-anchor="start" fill="#102A43" font-family="Helvetica, Arial, sans-serif" font-size="21" font-weight="850" letter-spacing="0" opacity="1"><tspan x="2025" dy="0">Independent verification</tspan></text>
    <text x="1956" y="1429" text-anchor="start" fill="#334E68" font-family="Helvetica, Arial, sans-serif" font-size="16" font-weight="600" letter-spacing="0" opacity="1"><tspan x="1956" dy="0">Verify authoritative post-state. Unexpected sockets,</tspan><tspan x="1956" dy="18.24">file reads or credentials trigger incident + resource</tspan><tspan x="1956" dy="18.24">hold.</tspan></text>
  </g><g>
    <rect x="2846" y="1160" width="882" height="365" fill="#102A43" opacity=".07"/>
    <rect x="2838" y="1150" width="882" height="365" fill="#FFFFFF" opacity=".96" stroke="#BCCCDC" stroke-width="2"/>
    <rect x="2838" y="1150" width="8" height="172" fill="#ED6A5A"/>
    <rect x="2838" y="1322" width="8" height="193" fill="#147D8B"/>
    <g transform="translate(2862 1174)"><rect width="54" height="54" rx="9.719999999999999" fill="#FDEDEA"/><g transform="translate(9.719999999999999 9.719999999999999) scale(1.4400000000000002)" fill="none" stroke="#ED6A5A" stroke-width="2" stroke-linecap="round" stroke-linejoin="round"><circle cx="8" cy="12" r="4"/><path d="M12 12h9 M17 12v3 M20 12v2"/></g></g>
    <text x="3696" y="1198" text-anchor="end" fill="#ED6A5A" font-family="ui-monospace, Consolas, monospace" font-size="21" font-weight="900" letter-spacing="0" opacity="1"><tspan x="3696" dy="0">08</tspan></text>
    <text x="2931" y="1191" text-anchor="start" fill="#ED6A5A" font-family="Helvetica, Arial, sans-serif" font-size="14" font-weight="900" letter-spacing="1" opacity="1"><tspan x="2931" dy="0">REPORT FACT</tspan></text>
    <text x="2931" y="1217" text-anchor="start" fill="#102A43" font-family="Helvetica, Arial, sans-serif" font-size="21" font-weight="850" letter-spacing="0" opacity="1"><tspan x="2931" dy="0">External revocation</tspan></text>
    <text x="2862" y="1257" text-anchor="start" fill="#334E68" font-family="Helvetica, Arial, sans-serif" font-size="16" font-weight="600" letter-spacing="0" opacity="1"><tspan x="2862" dy="0">Activity wound down after mass exits; Hugging Face</tspan><tspan x="2862" dy="18.24">lockout and credential failure followed.</tspan></text>
    <text x="3696" y="1308" text-anchor="end" fill="#627D98" font-family="ui-monospace, Consolas, monospace" font-size="13" font-weight="750" letter-spacing="0" opacity="1"><tspan x="3696" dy="0">REPORT pp. 38-39</tspan></text>
    <line x1="2846" y1="1322" x2="3720" y2="1322" stroke="#C78A19" stroke-width="3"/>
    <rect x="3207" y="1306" width="144" height="32" fill="#C78A19"/>
    <text x="3279" y="1329" text-anchor="middle" fill="#FFFFFF" font-family="ui-monospace, Consolas, monospace" font-size="12" font-weight="900" letter-spacing="0.5" opacity="1"><tspan x="3279" dy="0">CUT / CONTINUATION</tspan></text>
    <g transform="translate(2862 1346)"><rect width="54" height="54" rx="9.719999999999999" fill="#D9F3F4"/><g transform="translate(9.719999999999999 9.719999999999999) scale(1.4400000000000002)" fill="none" stroke="#0B3C49" stroke-width="2" stroke-linecap="round" stroke-linejoin="round"><path d="M7 18v-5a5 5 0 0 1 10 0v5 M5 21h14 M4 8 2 6 M20 8l2-2 M12 3V1"/></g></g>
    <text x="2931" y="1363" text-anchor="start" fill="#147D8B" font-family="Helvetica, Arial, sans-serif" font-size="14" font-weight="900" letter-spacing="0.8" opacity="1"><tspan x="2931" dy="0">PALO COUNTERFACTUAL</tspan></text>
    <text x="2931" y="1389" text-anchor="start" fill="#102A43" font-family="Helvetica, Arial, sans-serif" font-size="21" font-weight="850" letter-spacing="0" opacity="1"><tspan x="2931" dy="0">Assurance hold</tspan></text>
    <text x="2862" y="1429" text-anchor="start" fill="#334E68" font-family="Helvetica, Arial, sans-serif" font-size="16" font-weight="600" letter-spacing="0" opacity="1"><tspan x="2862" dy="0">Budgets, denial velocity, revocation and named human</tspan><tspan x="2862" dy="18.24">escalation quiesce the run and preserve evidence.</tspan></text>
  </g><g>
    <rect x="120" y="1540" width="3600" height="280" fill="#102A43"/>
    <rect x="120" y="1540" width="12" height="280" fill="#C78A19"/>
    <text x="168" y="1589" text-anchor="start" fill="#C78A19" font-family="ui-monospace, Consolas, monospace" font-size="18" font-weight="900" letter-spacing="1.8" opacity="1"><tspan x="168" dy="0">CONDITIONAL VERDICT</tspan></text>
    <text x="1920" y="1632" text-anchor="middle" fill="#FFFFFF" font-family="Helvetica, Arial, sans-serif" font-size="38" font-weight="900" letter-spacing="0" opacity="1"><tspan x="1920" dy="0">STOP AT ADMISSION OR THE FIRST UNAUTHORIZED</tspan><tspan x="1920" dy="39.9">CACHE / NETWORK ACTION</tspan></text>
    <rect x="175" y="1688" width="688.4" height="51" fill="#0B3C49" stroke="#147D8B" stroke-width="2"/><text x="519.2" y="1711" text-anchor="middle" fill="#D9F3F4" font-family="Helvetica, Arial, sans-serif" font-size="17" font-weight="850" letter-spacing="0" opacity="1"><tspan x="519.2" dy="0">COMPLETE MEDIATION</tspan></text><rect x="875.4" y="1688" width="688.4" height="51" fill="#0B3C49" stroke="#147D8B" stroke-width="2"/><text x="1219.6" y="1711" text-anchor="middle" fill="#D9F3F4" font-family="Helvetica, Arial, sans-serif" font-size="17" font-weight="850" letter-spacing="0" opacity="1"><tspan x="1219.6" dy="0">NO AMBIENT</tspan><tspan x="1219.6" dy="17.85">AUTHORITY</tspan></text><rect x="1575.8" y="1688" width="688.4" height="51" fill="#0B3C49" stroke="#147D8B" stroke-width="2"/><text x="1920" y="1711" text-anchor="middle" fill="#D9F3F4" font-family="Helvetica, Arial, sans-serif" font-size="17" font-weight="850" letter-spacing="0" opacity="1"><tspan x="1920" dy="0">CONTROL-PLANE</tspan><tspan x="1920" dy="17.85">INTEGRITY</tspan></text><rect x="2276.2" y="1688" width="688.4" height="51" fill="#0B3C49" stroke="#147D8B" stroke-width="2"/><text x="2620.3999999999996" y="1711" text-anchor="middle" fill="#D9F3F4" font-family="Helvetica, Arial, sans-serif" font-size="17" font-weight="850" letter-spacing="0" opacity="1"><tspan x="2620.3999999999996" dy="0">FRESH + FAIL-CLOSED</tspan></text><rect x="2976.6" y="1688" width="688.4" height="51" fill="#0B3C49" stroke="#147D8B" stroke-width="2"/><text x="3320.7999999999997" y="1711" text-anchor="middle" fill="#D9F3F4" font-family="Helvetica, Arial, sans-serif" font-size="17" font-weight="850" letter-spacing="0" opacity="1"><tspan x="3320.7999999999997" dy="0">INDEPENDENT</tspan><tspan x="3320.7999999999997" dy="17.85">ENFORCEMENT</tspan></text>
    <text x="1920" y="1795" text-anchor="middle" fill="#D9E2EC" font-family="Helvetica, Arial, sans-serif" font-size="18" font-weight="700" letter-spacing="0" opacity="1"><tspan x="1920" dy="0">If any assumption fails, PALO becomes advisory and the absolute prevention claim fails.</tspan></text>
  </g><g><rect x="120" y="1845" width="3600" height="110" fill="#FFFFFF" stroke="#BCCCDC" stroke-width="2"/>
    <text x="142" y="1873" text-anchor="start" fill="#C78A19" font-family="Helvetica, Arial, sans-serif" font-size="15" font-weight="900" letter-spacing="1.4" opacity="1"><tspan x="142" dy="0">MATURITY</tspan></text>
    <text x="142" y="1899" text-anchor="start" fill="#334E68" font-family="Helvetica, Arial, sans-serif" font-size="15" font-weight="700" letter-spacing="0" opacity="1"><tspan x="142" dy="0">PALO v3.1 = released governance control plane  •  PALO-AI v2.7 = non-production developer preview; bundled runtime denied for production.</tspan></text>
    <text x="142" y="1925" text-anchor="start" fill="#ED6A5A" font-family="Helvetica, Arial, sans-serif" font-size="15" font-weight="900" letter-spacing="1.4" opacity="1"><tspan x="142" dy="0">REPORT LIMITS</tspan></text>
    <text x="330" y="1925" text-anchor="start" fill="#627D98" font-family="Helvetica, Arial, sans-serif" font-size="15" font-weight="650" letter-spacing="0" opacity="1"><tspan x="330" dy="0">Safeguard effectiveness, compromise extent and remediation are out of scope. Dataset coverage is incomplete; AI-assisted analysis was unreliable / biased; confidence is lower.</tspan></text>
  </g><text x="120" y="2000" text-anchor="start" fill="#334E68" font-family="Helvetica, Arial, sans-serif" font-size="16" font-weight="750" letter-spacing="0" opacity="1"><tspan x="120" dy="0">Primary source: Brief independent investigation of agents’ behavior, reasoning and collaboration in the OpenAI / Hugging Face hacking incident</tspan></text><text x="3720" y="2000" text-anchor="end" fill="#147D8B" font-family="ui-monospace, Consolas, monospace" font-size="16" font-weight="850" letter-spacing="0" opacity="1"><tspan x="3720" dy="0">PALO AI INCIDENT OBSERVATORY  /  CASE 001  /  01 SEP 2026</tspan></text><line x1="120" y1="2030" x2="3720" y2="2030" stroke="#102A43" stroke-width="2"/><text x="1920" y="2078" text-anchor="middle" fill="#102A43" font-family="Helvetica, Arial, sans-serif" font-size="22" font-weight="900" letter-spacing="1.2" opacity="1"><tspan x="1920" dy="0">FACTS ARE REPORT-BOUND. PREVENTION STATEMENTS ARE CONDITIONAL SYSTEMS-SECURITY INFERENCES.</tspan></text>
  </svg>